<?xml version="1.0" encoding="UTF-8" standalone="no"?>
<svg width="120px" height="148px" viewBox="0 0 120 148" version="1.1" xmlns="http://www.w3.org/2000/svg" xmlns:xlink="http://www.w3.org/1999/xlink" xmlns:sketch="http://www.bohemiancoding.com/sketch/ns">
    <!-- Generator: Sketch 3.4.2 (15855) - http://www.bohemiancoding.com/sketch -->
    <title>C</title>
    <desc>Created with Sketch.</desc>
    <defs></defs>
    <g id="Page-1" stroke="none" stroke-width="1" fill="none" fill-rule="evenodd" sketch:type="MSPage">
        <g id="F_home" sketch:type="MSArtboardGroup" transform="translate(-1088.000000, -535.000000)" fill="#FFFFFF">
            <g id="_row" sketch:type="MSLayerGroup" transform="translate(90.000000, 377.000000)">
                <g id="work-block" transform="translate(867.000000, 84.000000)" sketch:type="MSShapeGroup">
                    <path d="M250.140625,178.980469 L232.269531,178.980469 C227.777344,195.289062 212.835938,205.347656 193.207031,205.347656 C166.058594,205.347656 149.066406,183.179688 149.066406,147.828125 C149.066406,112.476562 166.058594,90.2109375 193.109375,90.2109375 C212.542969,90.2109375 227.582031,101.636719 232.269531,119.800781 L250.140625,119.800781 C245.941406,92.6523438 222.796875,74 193.109375,74 C154.828125,74 131,102.320312 131,147.828125 C131,193.238281 154.925781,221.558594 193.207031,221.558594 C223.1875,221.558594 245.453125,204.859375 250.140625,178.980469 Z" id="C"></path>
                </g>
            </g>
        </g>
    </g>
</svg>