<?xml version="1.0" encoding="UTF-8" standalone="no"?>
<svg width="42px" height="28px" viewBox="0 0 42 28" version="1.1" xmlns="http://www.w3.org/2000/svg" xmlns:xlink="http://www.w3.org/1999/xlink" xmlns:sketch="http://www.bohemiancoding.com/sketch/ns">
    <!-- Generator: Sketch 3.4.2 (15855) - http://www.bohemiancoding.com/sketch -->
    <title>Rectangle 98</title>
    <desc>Created with Sketch.</desc>
    <defs></defs>
    <g id="Page-1" stroke="none" stroke-width="1" fill="none" fill-rule="evenodd" sketch:type="MSPage">
        <g id="F_home" sketch:type="MSArtboardGroup" transform="translate(-394.000000, -10.000000)" fill="#FFFFFF">
            <path d="M394,12.2087713 C394,10.9889006 394.985519,10 396.203267,10 L433.322124,10 C434.538955,10 435.525391,10.9803959 435.525391,12.2087713 C435.525391,13.428642 434.539872,14.4175426 433.322124,14.4175426 L396.203267,14.4175426 C394.986436,14.4175426 394,13.4371467 394,12.2087713 Z M394,23.9888849 C394,22.7690142 394.985519,21.7801136 396.203267,21.7801136 L433.322124,21.7801136 C434.538955,21.7801136 435.525391,22.7605095 435.525391,23.9888849 C435.525391,25.2087557 434.539872,26.1976563 433.322124,26.1976563 L396.203267,26.1976563 C394.986436,26.1976563 394,25.2172604 394,23.9888849 Z M394,35.7689986 C394,34.5491279 394.985519,33.5602273 396.203267,33.5602273 L433.322124,33.5602273 C434.538955,33.5602273 435.525391,34.5406232 435.525391,35.7689986 C435.525391,36.9888693 434.539872,37.9777699 433.322124,37.9777699 L396.203267,37.9777699 C394.986436,37.9777699 394,36.997374 394,35.7689986 Z" id="Rectangle-98" sketch:type="MSShapeGroup"></path>
        </g>
    </g>
</svg>