<?xml version="1.0" encoding="UTF-8" standalone="no"?>
<svg width="32px" height="32px" viewBox="0 0 32 32" version="1.1" xmlns="http://www.w3.org/2000/svg" xmlns:xlink="http://www.w3.org/1999/xlink" xmlns:sketch="http://www.bohemiancoding.com/sketch/ns">
    <!-- Generator: Sketch 3.4.2 (15855) - http://www.bohemiancoding.com/sketch -->
    <title>Rectangle 98</title>
    <desc>Created with Sketch.</desc>
    <defs></defs>
    <g id="Page-1" stroke="none" stroke-width="1" fill="none" fill-rule="evenodd" sketch:type="MSPage">
        <g id="F_home" sketch:type="MSArtboardGroup" transform="translate(-397.000000, -8.000000)" fill="#FFFFFF">
            <path d="M413.24328,21.1196055 L401.770111,9.64643693 C400.909033,8.78535908 399.512908,8.78775052 398.650329,9.65032937 C397.781737,10.518922 397.786008,11.9096822 398.646437,12.7701113 L410.119605,24.2432798 L398.557945,35.8049406 C397.696867,36.6660184 397.699258,38.0621436 398.561837,38.9247225 C399.43043,39.7933151 400.82119,39.789044 401.681619,38.9286149 L413.24328,27.3669542 L424.893433,39.0171071 C425.754511,39.878185 427.150636,39.8757935 428.013215,39.0132147 C428.881807,38.1446221 428.877536,36.7538619 428.017107,35.8934328 L416.366954,24.2432798 L427.928615,12.6816191 C428.789693,11.8205412 428.787301,10.424416 427.924722,9.56183717 C427.05613,8.69324458 425.66537,8.69751561 424.804941,9.55794473 L413.24328,21.1196055 Z" id="Rectangle-98" sketch:type="MSShapeGroup"></path>
        </g>
    </g>
</svg>