<?xml version="1.0" encoding="UTF-8" standalone="no"?>
<svg width="500px" height="501px" viewBox="0 0 500 501" version="1.1" xmlns="http://www.w3.org/2000/svg" xmlns:xlink="http://www.w3.org/1999/xlink" xmlns:sketch="http://www.bohemiancoding.com/sketch/ns">
    <!-- Generator: Sketch 3.3.3 (12072) - http://www.bohemiancoding.com/sketch -->
    <title>idea-one</title>
    <desc>Created with Sketch.</desc>
    <defs></defs>
    <g id="Page-1" stroke="none" stroke-width="1" fill="none" fill-rule="evenodd" sketch:type="MSPage">
        <g id="branding" sketch:type="MSArtboardGroup" transform="translate(-301.000000, -100.000000)">
            <g id="idea-one" sketch:type="MSLayerGroup" transform="translate(301.000000, 100.000000)">
                <rect id="Rectangle-10" fill="#EAE1E1" sketch:type="MSShapeGroup" x="0" y="0.5" width="500" height="500"></rect>
                <g transform="translate(22.000000, 84.000000)" stroke="#222222" stroke-width="6" sketch:type="MSShapeGroup">
                    <rect id="Rectangle-1-Copy" transform="translate(128.835352, 167.000000) rotate(-5.000000) translate(-128.835352, -167.000000) " x="10.835352" y="49" width="236" height="236"></rect>
                    <rect id="Rectangle-1-Copy-2" transform="translate(148.835352, 167.000000) rotate(-10.000000) translate(-148.835352, -167.000000) " x="30.835352" y="49" width="236" height="236"></rect>
                    <rect id="Rectangle-1-Copy-3" transform="translate(168.835352, 167.000000) rotate(-15.000000) translate(-168.835352, -167.000000) " x="50.835352" y="49" width="236" height="236"></rect>
                    <rect id="Rectangle-1-Copy-4" transform="translate(188.835352, 167.000000) rotate(-20.000000) translate(-188.835352, -167.000000) " x="70.835352" y="49" width="236" height="236"></rect>
                    <rect id="Rectangle-1-Copy-5" transform="translate(208.835352, 167.000000) rotate(-25.000000) translate(-208.835352, -167.000000) " x="90.835352" y="49" width="236" height="236"></rect>
                    <rect id="Rectangle-1-Copy-6" transform="translate(228.835352, 167.000000) rotate(-30.000000) translate(-228.835352, -167.000000) " x="110.835352" y="49" width="236" height="236"></rect>
                    <rect id="Rectangle-1-Copy-7" transform="translate(248.835352, 167.000000) rotate(-35.000000) translate(-248.835352, -167.000000) " x="130.835352" y="49" width="236" height="236"></rect>
                    <rect id="Rectangle-1-Copy-8" transform="translate(268.835352, 167.000000) rotate(-40.000000) translate(-268.835352, -167.000000) " x="150.835352" y="49" width="236" height="236"></rect>
                    <rect id="Rectangle-1-Copy-9" transform="translate(288.835352, 167.000000) rotate(-45.000000) translate(-288.835352, -167.000000) " x="170.835352" y="49" width="236" height="236"></rect>
                </g>
            </g>
        </g>
    </g>
</svg>