<?xml version="1.0" encoding="UTF-8" standalone="no"?>
<svg width="310px" height="295px" viewBox="0 0 310 295" version="1.1" xmlns="http://www.w3.org/2000/svg" xmlns:xlink="http://www.w3.org/1999/xlink" xmlns:sketch="http://www.bohemiancoding.com/sketch/ns">
	<!-- Generator: Sketch 3.4.4 (17249) - http://www.bohemiancoding.com/sketch -->
	<title>Oval 30</title>
	<desc>Created with Sketch.</desc>
	<defs></defs>
	<g id="Page-1" stroke="none" stroke-width="1" fill="none" fill-rule="evenodd" sketch:type="MSPage">
		<g id="Artboard-3" sketch:type="MSArtboardGroup" transform="translate(-426.000000, -206.000000)" fill="#191926">
			<g id="Group" sketch:type="MSLayerGroup" transform="translate(426.000000, 206.000000)">
				<path d="M125,250 C194.035594,250 250,194.035594 250,125 C250,55.9644063 194.035594,0 125,0 C55.9644063,0 0,55.9644063 0,125 C0,194.035594 55.9644063,250 125,250 Z M190,165 C212.09139,165 230,147.09139 230,125 C230,102.90861 212.09139,85 190,85 C167.90861,85 150,102.90861 150,125 C150,147.09139 167.90861,165 190,165 Z M30,295 C41.045695,295 50,286.045695 50,275 C50,263.954305 41.045695,255 30,255 C18.954305,255 10,263.954305 10,275 C10,286.045695 18.954305,295 30,295 Z M290,55 C301.045695,55 310,46.045695 310,35 C310,23.954305 301.045695,15 290,15 C278.954305,15 270,23.954305 270,35 C270,46.045695 278.954305,55 290,55 Z" id="Oval-30" sketch:type="MSShapeGroup"></path>
			</g>
		</g>
	</g>
</svg>
