<?xml version="1.0" encoding="UTF-8" standalone="no"?>
<svg width="500px" height="500px" viewBox="0 0 500 500" version="1.1" xmlns="http://www.w3.org/2000/svg" xmlns:xlink="http://www.w3.org/1999/xlink" xmlns:sketch="http://www.bohemiancoding.com/sketch/ns">
    <!-- Generator: Sketch 3.5.1 (25234) - http://www.bohemiancoding.com/sketch -->
    <title>redpoint-icon-circle</title>
    <desc>Created with Sketch.</desc>
    <defs></defs>
    <g id="Page-1" stroke="none" stroke-width="1" fill="none" fill-rule="evenodd" sketch:type="MSPage">
        <path d="M72.1070222,409.041472 C51.1284047,385.879623 34.6365485,358.578123 24.0029582,328.508475 L84.9043762,209.208438 C86.9131963,205.273352 91.3048847,204.353121 94.7293587,207.166082 L169.853975,268.87559 C173.271343,271.682714 178.778452,271.633944 182.144537,268.775077 L322.02213,149.974926 C325.392652,147.112291 330.409849,147.560459 333.221841,150.968047 L475.615185,323.521092 C465.537413,354.173624 449.41503,382.083135 428.65817,405.83949 L389.991672,318.359008 C388.654099,315.332834 385.315892,314.34142 382.540718,316.156254 L330.080514,350.462761 C328.688047,351.373368 326.663267,351.111923 325.545438,349.887047 L266.165103,284.820208 C263.556212,281.961479 259.306868,281.941089 256.663535,284.763277 L180.323448,366.268742 C179.187191,367.48188 176.929351,368.610419 175.278981,368.79094 L89.0840429,378.219114 C87.4342777,378.399569 85.5368596,379.764429 84.8473925,381.267468 L72.1070234,409.041472 Z M250,500 C388.071187,500 500,388.071187 500,250 C500,111.928813 388.071187,0 250,0 C111.928813,0 0,111.928813 0,250 C0,388.071187 111.928813,500 250,500 Z M419.942138,415.291531 L384.433756,333.385529 C382.672697,329.323353 378.341891,328.126725 374.754557,330.698776 L328.485135,363.873077 C327.132064,364.843204 325.160512,364.615934 324.073552,363.37119 L266.716076,297.687629 C263.814227,294.364545 259.054171,294.327273 256.088486,297.609298 L185.343033,375.900931 C184.237731,377.124132 181.998874,378.264652 180.352736,378.436922 L97.7294303,387.083549 C95.539461,387.312731 93.0038339,389.126643 92.0833914,391.133207 L80.0397773,417.388286 C123.226471,460.699481 182.962604,487.5 248.958333,487.5 C316.012595,487.5 376.604849,459.832858 419.942147,415.291522 Z" id="redpoint-icon-circle" fill="#5C5F7D" sketch:type="MSShapeGroup"></path>
    </g>
</svg>