<?xml version="1.0" encoding="UTF-8" standalone="no"?>
<svg width="106px" height="58px" viewBox="0 0 106 58" version="1.1" xmlns="http://www.w3.org/2000/svg" xmlns:xlink="http://www.w3.org/1999/xlink" xmlns:sketch="http://www.bohemiancoding.com/sketch/ns">
    <!-- Generator: Sketch 3.3.3 (12072) - http://www.bohemiancoding.com/sketch -->
    <title>Triangle 1 Copy 9 + Group</title>
    <desc>Created with Sketch.</desc>
    <defs></defs>
    <g id="Page-1" stroke="none" stroke-width="1" fill="none" fill-rule="evenodd" sketch:type="MSPage">
        <g id="home" sketch:type="MSArtboardGroup" transform="translate(-1303.000000, -566.000000)">
            <g id="Triangle-1-Copy-9-+-Group" sketch:type="MSLayerGroup" transform="translate(1303.000000, 566.000000)">
                <path d="M53,49.1695502 L28.7083333,0.200692042 L77.2916667,0.200692042 L53,49.1695502 L53,49.1695502 Z" id="Triangle-1-Copy-9" fill="#FFE6E6" sketch:type="MSShapeGroup"></path>
                <polygon id="Triangle-1" stroke="#222222" sketch:type="MSShapeGroup" points="28.9090909 0.200692042 57.8181818 58 0 58 "></polygon>
                <polygon id="Triangle-1-Copy" stroke="#222222" sketch:type="MSShapeGroup" points="34.9318182 0.200692042 63.8409091 58 6.02272727 58 "></polygon>
                <polygon id="Triangle-1-Copy-2" stroke="#222222" sketch:type="MSShapeGroup" points="40.9545455 0.200692042 69.8636364 58 12.0454545 58 "></polygon>
                <polygon id="Triangle-1-Copy-3" stroke="#222222" sketch:type="MSShapeGroup" points="46.9772727 0.200692042 75.8863636 58 18.0681818 58 "></polygon>
                <polygon id="Triangle-1-Copy-4" stroke="#222222" sketch:type="MSShapeGroup" points="53 0.200692042 81.9090909 58 24.0909091 58 "></polygon>
                <polygon id="Triangle-1-Copy-5" stroke="#222222" sketch:type="MSShapeGroup" points="59.0227273 0.200692042 87.9318182 58 30.1136364 58 "></polygon>
                <polygon id="Triangle-1-Copy-6" stroke="#222222" sketch:type="MSShapeGroup" points="65.0454545 0.200692042 93.9545455 58 36.1363636 58 "></polygon>
                <polygon id="Triangle-1-Copy-7" stroke="#222222" sketch:type="MSShapeGroup" points="71.0681818 0.200692042 99.9772727 58 42.1590909 58 "></polygon>
                <polygon id="Triangle-1-Copy-8" stroke="#222222" sketch:type="MSShapeGroup" points="77.0909091 0.200692042 106 58 48.1818182 58 "></polygon>
            </g>
        </g>
    </g>
</svg>